<svg xmlns="http://www.w3.org/2000/svg" viewBox="0 0 512 512">
  <defs>
    <linearGradient id="signal" x1="72" y1="54" x2="442" y2="458" gradientUnits="userSpaceOnUse">
      <stop stop-color="#ff2bd6"/>
      <stop offset="1" stop-color="#9b5cff"/>
    </linearGradient>
    <filter id="glow" x="-40%" y="-40%" width="180%" height="180%">
      <feGaussianBlur stdDeviation="18"/>
    </filter>
  </defs>
  <rect width="512" height="512" rx="116" fill="#07050b"/>
  <path d="M102 356c52 48 171 47 171-19 0-72-164-38-164-146 0-89 118-123 221-63" fill="none" stroke="#ff2bd6" stroke-width="42" stroke-linecap="round" opacity=".4" filter="url(#glow)"/>
  <path d="M102 356c52 48 171 47 171-19 0-72-164-38-164-146 0-89 118-123 221-63" fill="none" stroke="url(#signal)" stroke-width="34" stroke-linecap="round"/>
  <path d="M284 374V145l126 229V145" fill="none" stroke="#fff" stroke-width="30" stroke-linecap="round" stroke-linejoin="round"/>
  <circle cx="102" cy="356" r="15" fill="#fff"/>
</svg>
